<?xml version="1.0" encoding="UTF-8" standalone="no"?>
<!-- Created with Inkscape (http://www.inkscape.org/) -->

<svg
   width="296.99997mm"
   height="105.70211mm"
   viewBox="0 0 1122.5196 399.50405"
   version="1.1"
   id="svg1"
   xml:space="preserve"
   inkscape:version="1.3.2 (091e20e, 2023-11-25, custom)"
   sodipodi:docname="decifris.svg"
   xmlns:inkscape="http://www.inkscape.org/namespaces/inkscape"
   xmlns:sodipodi="http://sodipodi.sourceforge.net/DTD/sodipodi-0.dtd"
   xmlns="http://www.w3.org/2000/svg"
   xmlns:svg="http://www.w3.org/2000/svg"><sodipodi:namedview
     id="namedview1"
     pagecolor="#ffffff"
     bordercolor="#000000"
     borderopacity="0.25"
     inkscape:showpageshadow="2"
     inkscape:pageopacity="0.0"
     inkscape:pagecheckerboard="0"
     inkscape:deskcolor="#d1d1d1"
     inkscape:document-units="mm"
     inkscape:zoom="0.5"
     inkscape:cx="283"
     inkscape:cy="401"
     inkscape:window-width="1920"
     inkscape:window-height="974"
     inkscape:window-x="-11"
     inkscape:window-y="-11"
     inkscape:window-maximized="1"
     inkscape:current-layer="layer1" /><defs
     id="defs1" /><g
     inkscape:label="Livello 1"
     inkscape:groupmode="layer"
     id="layer1"
     transform="translate(0,-240.5)"><rect
       style="fill:#006293;fill-opacity:1;stroke-width:0"
       id="rect3"
       width="24.315926"
       height="166.73778"
       x="92.92157"
       y="348.2388" /><rect
       style="fill:#006293;fill-opacity:1;stroke-width:0"
       id="rect4"
       width="25.184351"
       height="154.57982"
       x="227.18546"
       y="328.26498" /><rect
       style="fill:#006293;fill-opacity:1;stroke-width:0"
       id="rect5"
       width="47.763424"
       height="15.631666"
       x="229.79074"
       y="328.26498" /><rect
       style="fill:#006293;fill-opacity:1;stroke-width:0"
       id="rect6"
       width="35.309017"
       height="15.044711"
       x="242.25911"
       y="467.6142" /><rect
       style="fill:#006293;fill-opacity:1;stroke-width:0"
       id="rect7"
       width="20.571341"
       height="15.965816"
       x="247.4787"
       y="434.76144" /><rect
       style="fill:#006293;fill-opacity:1;stroke-width:0"
       id="rect8"
       width="36.473888"
       height="307.42276"
       x="589.66119"
       y="258.79092" /><rect
       style="fill:#006293;fill-opacity:1;stroke-width:0"
       id="rect9"
       width="39.079163"
       height="307.63989"
       x="640.02991"
       y="258.79092" /><rect
       style="fill:#006293;fill-opacity:1;stroke-width:0"
       id="rect10"
       width="53.842407"
       height="28.658054"
       x="661.74054"
       y="472.42371" /><rect
       style="fill:#006293;fill-opacity:1;stroke-width:0"
       id="rect11"
       width="72.947777"
       height="29.526482"
       x="660.87213"
       y="258.79092" /><rect
       style="fill:#006293;fill-opacity:1;stroke-width:0"
       id="rect12"
       width="38.210754"
       height="306.77142"
       x="940.50525"
       y="259.65933" /><rect
       style="fill:#006293;fill-opacity:1;stroke-width:0"
       id="rect13"
       width="41.250237"
       height="307.63986"
       x="748.58313"
       y="258.79092" /><rect
       style="fill:#006293;fill-opacity:1;stroke-width:0"
       id="rect14"
       width="29.303268"
       height="104.92062"
       x="564.46185"
       y="516.54199"
       transform="matrix(0.99996433,0.00844631,0.43085491,0.90242121,0,0)" /><rect
       style="fill:#006293;fill-opacity:1;stroke-width:0"
       id="rect14-7"
       width="29.303268"
       height="104.92062"
       x="576.75543"
       y="516.52582"
       transform="matrix(0.99996433,0.00844631,0.43085491,0.90242121,0,0)" /><rect
       style="fill:#006293;fill-opacity:1;stroke-width:0"
       id="rect15"
       width="47.763424"
       height="26.052778"
       x="780.7149"
       y="475.02896" /><path
       id="path16"
       style="fill:#006293;fill-opacity:1;fill-rule:evenodd"
       d="M 583.25197,234.62305 A 212.76436,201.90903 0 0 0 378.63282,436.35157 212.76436,201.90903 0 0 0 583.18361,638.14259 l 1.13476,-27.87304 a 176.29047,171.94833 0 0 1 -148.69922,-83.68751 176.29047,171.94833 0 0 1 3.92578,-182.18555 176.29047,171.94833 0 0 1 145.00587,-77.625 z" /><path
       id="path17-3-8"
       style="fill:#006293;fill-opacity:1;fill-rule:evenodd;stroke-width:0.57005"
       d="m 124.35352,318.91798 a 100.37853,98.132126 0 0 0 -93.845707,52.41406 100.37853,98.132126 0 0 0 29.517579,124.72852 l 11.650391,-15.5293 a 77.799461,81.632034 0 0 1 -26.908204,-58.46484 77.799461,81.632034 0 0 1 73.773441,-84.66993 77.799461,81.632034 0 0 1 81.61133,76.33985 77.799461,81.632034 0 0 1 -71.73047,86.58203 l -3.88672,0.20703 a 77.799461,81.632034 0 0 1 -8.08789,-0.38086 l -0.52539,14.85938 a 100.37853,98.132126 0 0 0 102.15039,-80.10547 100.37853,98.132126 0 0 0 -65.80274,-110.6875 100.37853,98.132126 0 0 0 -27.91601,-5.29297 z" /><path
       id="path18-4"
       style="fill:#006293;fill-opacity:1;fill-rule:evenodd;stroke-width:1.00155"
       d="m 898.80276,377.33009 a 87.711014,92.879664 0 0 1 -70.16407,91.83008 l -0.38672,28.51367 a 103.06276,119.44872 0 0 0 90.87696,-59.70899 103.06276,119.44872 0 0 0 13.80273,-60.63476 z" /><path
       id="path21"
       style="fill:#006293;fill-opacity:1;fill-rule:evenodd"
       d="m 797.43361,258.81446 a 138.36494,117.45461 0 0 0 -26.93164,1.77539 l 5.46289,26.1875 a 116.6543,90.099197 0 0 1 83.67188,22.5 116.6543,90.099197 0 0 1 39.25195,68.19141 l 34.09375,0.40039 a 138.36494,117.45461 0 0 0 -48.7207,-91.10352 138.36494,117.45461 0 0 0 -86.82813,-27.95117 z" /><rect
       style="fill:#006293;fill-opacity:1;stroke-width:0"
       id="rect22"
       width="1.6887207"
       height="4.4328542"
       x="898.82556"
       y="373.33527" /><rect
       style="fill:#006293;fill-opacity:1;stroke-width:0"
       id="rect24"
       width="58.401642"
       height="17.151411"
       x="771.37933"
       y="468.94998"
       inkscape:label="rect24" /><path
       id="path21-9"
       style="fill:#006293;fill-opacity:1;fill-rule:evenodd;stroke-width:1.00821"
       d="m 1060.4746,261.72462 a 70.570356,64.818682 0 0 0 -61.75583,32.36914 70.570356,64.818682 0 0 0 -8.9414,39.51172 70.570356,64.818682 0 0 0 9.24414,38.04687 70.570356,64.818682 0 0 0 3.46879,4.75586 h 2.7675 v 1.90039 h 2.4414 v 1.57422 h 4.5059 v 3.20117 h 9.1172 v 4.56055 h 18.9433 v 13.6582 a 74.29892,74.696861 0 0 1 27.0958,26.9961 74.29892,74.696861 0 0 1 -0.3985,75.19141 74.29892,74.696861 0 0 1 -64.416,36.70508 l -0.1016,26.58984 a 105.36312,102.59505 0 0 0 92.5918,-50.56641 105.36312,102.59505 0 0 0 0.3946,-103.37109 105.36312,102.59505 0 0 0 -33.9512,-34.38086 37.85355,36.745445 0 0 0 -7.9043,-4.69727 105.36312,102.59505 0 0 0 -10.8731,-4.99023 44.213028,43.374142 0 0 1 -22.3886,-42.26758 44.213028,43.374142 0 0 1 40.2539,-38.59375 l -0.029,-7.69727 a 49.764104,47.192843 0 0 1 0.01,0 z" /><path
       sodipodi:type="spiral"
       style="fill:#006293;fill-opacity:1;fill-rule:evenodd;stroke:#006293;stroke-opacity:1"
       id="path30"
       sodipodi:cx="1031.0232"
       sodipodi:cy="384.25421"
       sodipodi:expansion="1"
       sodipodi:revolution="0.96004754"
       sodipodi:radius="44.832245"
       sodipodi:argument="-5.7402601"
       sodipodi:t0="0.93449008"
       d="m 1072.6953,379.93539 c 1.5966,5.57658 2.0015,11.47025 1.2637,17.22015"
       transform="matrix(0.84028801,-1.3932465,1.3292008,0.88077613,-363.11526,1529.8287)"
       inkscape:transform-center-x="-15.822765"
       inkscape:transform-center-y="22.363487" /><path
       sodipodi:type="spiral"
       style="fill:#006293;fill-opacity:1;fill-rule:evenodd;stroke:#006293;stroke-opacity:1"
       id="path31"
       sodipodi:cx="995.86743"
       sodipodi:cy="349.10721"
       sodipodi:expansion="1"
       sodipodi:revolution="0.93634987"
       sodipodi:radius="107.89582"
       sodipodi:argument="-5.6899247"
       sodipodi:t0="0.95814121"
       d="m 1099.1021,343.63777 c 1.994,8.57417 2.8707,17.40086 2.6509,26.19977"
       transform="matrix(-1.1843157,-0.07051497,0.08379941,-0.99657001,2263.9538,769.54043)" /><path
       style="fill:#006293;fill-opacity:1;fill-rule:evenodd;stroke-width:4.48838"
       id="path45"
       sodipodi:type="arc"
       sodipodi:cx="793.76691"
       sodipodi:cy="935.86298"
       sodipodi:rx="139.90546"
       sodipodi:ry="96.345245"
       sodipodi:start="2.6084816"
       sodipodi:end="3.0952943"
       sodipodi:arc-type="arc"
       d="M 673.27611,984.82709 A 139.90546,96.345245 0 0 1 654.01137,940.32201"
       sodipodi:open="true"
       transform="matrix(0.76710909,-0.64151667,0.53254052,0.84640451,0,0)" /><rect
       style="fill:#006293;fill-opacity:1;fill-rule:evenodd;stroke:#ff0000;stroke-width:0;stroke-opacity:1"
       id="rect45"
       width="4.25"
       height="3.25"
       x="995.33429"
       y="-398.15591"
       transform="rotate(42.218908)"
       inkscape:transform-center-x="2.0000001"
       inkscape:transform-center-y="-0.15625" /><rect
       style="fill:#006293;fill-opacity:1;fill-rule:evenodd;stroke:#ff0000;stroke-width:0;stroke-opacity:1"
       id="rect45-5"
       width="4.25"
       height="3.25"
       x="999.1886"
       y="-398.47974"
       transform="rotate(42.218908)"
       inkscape:transform-center-x="2.0000001"
       inkscape:transform-center-y="-0.15625" /><rect
       style="fill:#006293;fill-opacity:1;fill-rule:evenodd;stroke:#ff0000;stroke-width:0;stroke-opacity:1"
       id="rect45-2"
       width="4.25"
       height="3.25"
       x="1002.9205"
       y="-399.24976"
       transform="rotate(42.218908)"
       inkscape:transform-center-x="2.0000001"
       inkscape:transform-center-y="-0.15625" /><rect
       style="fill:#006293;fill-opacity:1;fill-rule:evenodd;stroke:#ff0000;stroke-width:0;stroke-opacity:1"
       id="rect45-27"
       width="23.45941"
       height="17.529516"
       x="977.32922"
       y="-299.3663"
       transform="matrix(0.8148167,0.57971868,-0.75661416,0.65386162,0,0)"
       inkscape:transform-center-x="12.146298"
       inkscape:transform-center-y="-0.744079" /><rect
       style="fill:#006293;fill-opacity:1;fill-rule:evenodd;stroke:#ff0000;stroke-width:0;stroke-opacity:1"
       id="rect45-27-5"
       width="24.49062"
       height="18.195854"
       x="987.84882"
       y="-273.32507"
       transform="matrix(0.83164421,0.55530884,-0.77666245,0.62991701,0,0)"
       inkscape:transform-center-x="12.942078"
       inkscape:transform-center-y="-0.74406553" /><path
       sodipodi:type="spiral"
       style="fill:none;fill-rule:evenodd;stroke:#006293;stroke-width:1.00056;stroke-dasharray:none;stroke-opacity:1"
       id="path46"
       sodipodi:cx="1023.2719"
       sodipodi:cy="392.17911"
       sodipodi:expansion="1"
       sodipodi:revolution="0.95557708"
       sodipodi:radius="59.995827"
       sodipodi:argument="-6.084971"
       sodipodi:t0="0.93886203"
       d="m 1074.0415,367.78098 c 4.2195,5.86622 7.2715,12.5444 9.03,19.54957"
       transform="matrix(2.6068662,0,0,0.67435106,-1768.6121,149.79688)" /><path
       sodipodi:type="spiral"
       style="fill:none;fill-rule:evenodd;stroke:#006293;stroke-opacity:1"
       id="path47"
       sodipodi:cx="1045.375"
       sodipodi:cy="372.125"
       sodipodi:expansion="1"
       sodipodi:revolution="0.95557708"
       sodipodi:radius="47.292309"
       sodipodi:argument="-3.3947353"
       sodipodi:t0="0.93886203"
       d="m 1017.7519,406.88715 c -5.01,-2.71025 -9.471,-6.39785 -13.1269,-10.76215"
       transform="matrix(1.6128756,0,0,1.4621529,-593.12564,-223.14713)" /></g></svg>
