<svg xmlns="http://www.w3.org/2000/svg" version="1.1" xmlns:xlink="http://www.w3.org/1999/xlink" xmlns:svgjs="http://svgjs.com/svgjs" width="1000" height="1000"><rect width="1000" height="1000" rx="250" ry="250" fill="#ffffff"></rect><g transform="matrix(1.2106537530266344,0,0,1.2106537530266344,0.040810628895599166,1.0554625393403398)"><svg xmlns="http://www.w3.org/2000/svg" version="1.1" xmlns:xlink="http://www.w3.org/1999/xlink" xmlns:svgjs="http://svgjs.com/svgjs" width="826" height="826"><svg version="1.1" width="826" height="826" style="clip-rule:evenodd;fill-rule:evenodd;image-rendering:optimizeQuality;shape-rendering:geometricPrecision;text-rendering:geometricPrecision" id="svg220" sodipodi:docname="SCRITTA(6).svg" inkscape:export-filename="SCRITTA(6).png" inkscape:export-xdpi="96" inkscape:export-ydpi="96" xmlns:inkscape="http://www.inkscape.org/namespaces/inkscape" xmlns:sodipodi="http://sodipodi.sourceforge.net/DTD/sodipodi-0.dtd" xmlns="http://www.w3.org/2000/svg" xmlns:svg="http://www.w3.org/2000/svg">
  <defs id="defs220"></defs>
  <sodipodi:namedview id="namedview220" pagecolor="#ffffff" bordercolor="#000000" borderopacity="0.25" inkscape:showpageshadow="2" inkscape:pageopacity="0.0" inkscape:pagecheckerboard="0" inkscape:deskcolor="#d1d1d1"></sodipodi:namedview>
  <g id="g2" style="clip-rule:evenodd;fill-rule:evenodd;image-rendering:optimizeQuality;shape-rendering:geometricPrecision;text-rendering:geometricPrecision" transform="translate(2.0529177,-2.260414)">
    <path style="opacity:0.995" fill="#024473" d="m 374.5,81.5 c 56.061,0.0786 92.228,26.745 108.5,80 0.172,-22.906 0.672,-45.739 1.5,-68.5 17.934,-1.6261 35.934,-1.9594 54,-1 -0.975,5.7412 -1.308,11.575 -1,17.5 -9.667,0 -19.333,0 -29,0 -0.167,30.668 0,61.335 0.5,92 5.741,0.975 11.575,1.308 17.5,1 0,5.333 0,10.667 0,16 -6,0 -12,0 -18,0 0.056,5.615 0.723,11.115 2,16.5 8.982,0.88 17.982,1.38 27,1.5 -0.281,5.065 0.052,10.065 1,15 -17.991,1.166 -35.991,1.333 -54,0.5 -0.825,-16.093 -1.325,-32.259 -1.5,-48.5 -7.419,36.75 -28.585,61.917 -63.5,75.5 -22.635,8.497 -45.968,11.33 -70,8.5 0.976,-58.32 1.642,-116.654 2,-175 7.901,0.454 15.734,1.12 23.5,2 0.5,51.666 0.667,103.332 0.5,155 23.787,1.464 44.12,-6.036 61,-22.5 24.19,-25.599 31.357,-55.432 21.5,-89.5 -22.617,-49.894 -60.117,-67.061 -112.5,-51.5 -43.109,26.658 -56.942,64.158 -41.5,112.5 6.307,11.64 14.141,22.14 23.5,31.5 -3.511,6.192 -8.678,10.026 -15.5,11.5 -2.321,-0.409 -4.487,-1.243 -6.5,-2.5 -32.376,-32.023 -40.542,-69.523 -24.5,-112.5 14.77,-30.812 38.603,-50.9786 71.5,-60.5 7.382,-1.9759 14.716,-3.4759 22,-4.5 z" id="path2"></path>
  </g>
  <g id="g19" style="clip-rule:evenodd;fill:#014473;fill-opacity:1;fill-rule:evenodd;image-rendering:optimizeQuality;shape-rendering:geometricPrecision;text-rendering:geometricPrecision" transform="translate(2.0529177,-2.260414)">
    <path id="path19" style="opacity:1;fill:#014473;fill-opacity:1" d="m 216.99219,299.5 c -2.83337,0.0834 -5.66369,0.2505 -8.49219,0.5 -27.82594,5.70598 -54.82606,14.03902 -81,25 -33.062534,19.29796 -60.895946,44.46506 -83.5,75.5 -5.605588,10.87798 -10.93901,21.87802 -16,33 -31.9072662,76.73584 -23.5738928,148.73614 25,216 44.60271,59.21788 104.10314,89.052 178.5,89.5 0.77388,-8.58825 1.23912,-17.25182 1.44336,-25.97852 -0.0293,-0.11681 -0.0548,-0.24609 -0.0762,-0.39062 -0.0485,-1.16829 0.0315,-2.33854 0.11523,-3.50586 -0.68498,-0.17951 -1.37028,-0.35708 -2.05469,-0.53906 -0.20535,-0.0594 -1.36051,-0.34489 -1.6875,-0.61914 -15.28285,-1.67 -30.52949,-3.98968 -45.7402,-6.9668 -10.20698,-3.104 -20.20702,-6.77 -30,-11 C 129.28807,674.13604 107.12096,655.63596 87,634.5 74.185526,614.54104 63.185482,593.54096 54,571.5 41.685024,517.0551 49.018354,465.3889 76,416.5 c 35.45992,-53.8289 85.62712,-82.496 150.5,-86 h 5 c -0.149,-10.34098 -0.482,-20.67402 -1,-31 h -5 c -2.838,-0.083 -5.67445,-0.0834 -8.50781,0 z m 12.05469,407.99414 c 0.0267,0.0296 0.0521,0.058 0.0801,0.0879 -0.002,-0.0226 -0.004,-0.0463 -0.006,-0.0684 -0.0255,-0.006 -0.0488,-0.0129 -0.0742,-0.0195 z"></path>
  </g>
  <g id="g58" style="clip-rule:evenodd;fill-rule:evenodd;image-rendering:optimizeQuality;shape-rendering:geometricPrecision;text-rendering:geometricPrecision" transform="translate(2.0529177,-2.260414)">
    <path style="opacity:0.998" fill="#014473" d="m 299.5,320.5 c 2.667,0 5.333,0 8,0 30.843,2.07 61.843,3.404 93,4 0,2 0,4 0,6 -0.992,7.482 -1.325,15.148 -1,23 -21.333,0 -42.667,0 -64,0 0,68.667 0,137.333 0,206 14.647,0.873 29.314,1.207 44,1 -0.237,1.291 0.096,2.291 1,3 0,8 0,16 0,24 -0.904,0.709 -1.237,1.709 -1,3 -13.99,-0.666 -27.99,-1 -42,-1 0.069,24.674 -0.264,49.34 -1,74 -14.006,-0.12 -28.006,-0.454 -42,-1 0,-113.667 0,-227.333 0,-341 1.915,0.284 3.581,-0.049 5,-1 z" id="path58"></path>
  </g>
  <g id="g62" style="clip-rule:evenodd;fill:#014473;fill-opacity:1;fill-rule:evenodd;image-rendering:optimizeQuality;shape-rendering:geometricPrecision;text-rendering:geometricPrecision" transform="translate(2.0529177,-2.260414)">
    <path id="path62" style="opacity:1;fill:#014473;fill-opacity:1" d="m 238.5,323.5 v 2 337 c 13.67726,0.3717 27.34237,0.98624 40.99805,1.78711 -0.003,-0.13418 -0.007,-0.26817 -0.01,-0.40234 -0.0364,-1.68206 -0.028,-3.36284 0.0742,-5.04297 0.0905,-1.61117 0.20704,-3.22222 0.43555,-4.82032 C 279.43803,543.8481 278.93836,433.67339 278.5,323.5 Z"></path>
  </g>
  <g id="g63" style="clip-rule:evenodd;fill-rule:evenodd;image-rendering:optimizeQuality;shape-rendering:geometricPrecision;text-rendering:geometricPrecision" transform="translate(2.0529177,-2.260414)">
    <path style="opacity:1" fill="#004473" d="m 584.5,371.5 c 2,2.333 4,4.667 6,7 3.98,7.283 8.48,14.283 13.5,21 9.591,22.889 13.758,46.555 12.5,71 -2.814,25.951 -12.48,48.951 -29,69 -0.667,0 -1,0.333 -1,1 -0.838,0.342 -1.172,1.008 -1,2 -8.864,9.032 -18.198,17.532 -28,25.5 -5.831,3.081 -11.498,6.415 -17,10 -8.272,2.868 -16.605,5.535 -25,8 -0.522,0.561 -0.855,1.228 -1,2 11.197,24.227 22.53,48.394 34,72.5 -13.996,2.635 -27.996,2.635 -42,0 -10.888,-23.273 -21.888,-46.44 -33,-69.5 -5.991,-0.499 -11.991,-0.666 -18,-0.5 0.033,22.678 -0.467,45.344 -1.5,68 -12.411,3.721 -24.911,3.888 -37.5,0.5 -0.996,-35.427 -1.329,-70.927 -1,-106.5 0,-22.333 0,-44.667 0,-67 -0.331,-54.238 0.003,-108.405 1,-162.5 29.694,-0.605 59.361,0.061 89,2 31.644,6.81 57.977,22.31 79,46.5 z m -130,-18 c 20.084,-0.659 39.751,1.841 59,7.5 9.422,3.769 18.088,8.769 26,15 7.167,7.167 14.333,14.333 21.5,21.5 11.802,16.749 17.136,35.416 16,56 2.782,24.649 -3.885,46.316 -20,65 -7.959,10.296 -17.459,18.796 -28.5,25.5 -3.785,-0.266 -6.785,1.401 -9,5 -6.226,3.78 -12.893,6.447 -20,8 -15.18,2.018 -30.346,2.518 -45.5,1.5 -0.83,-68.404 -0.663,-136.737 0.5,-205 z" id="path63"></path>
  </g>
  <g id="g64" style="clip-rule:evenodd;fill-rule:evenodd;image-rendering:optimizeQuality;shape-rendering:geometricPrecision;text-rendering:geometricPrecision" transform="translate(2.0529177,-2.260414)">
    <path style="opacity:1" fill="#004473" d="m 742.5,325.5 c 4.93,-0.303 9.763,0.031 14.5,1 0.5,9.327 0.666,18.661 0.5,28 -8.122,2.061 -15.788,5.227 -23,9.5 -5.533,5.198 -10.7,10.698 -15.5,16.5 -2.084,10.921 -3.084,21.921 -3,33 3.89,9.289 9.39,17.456 16.5,24.5 11.674,6.835 23.007,14.168 34,22 10.24,8.904 19.406,18.737 27.5,29.5 23.956,39.217 24.623,78.883 2,119 -24.671,35.668 -58.671,53.668 -102,54 -0.499,-9.354 -0.166,-18.688 1,-28 11.485,-4.828 23.318,-8.661 35.5,-11.5 14.591,-9.924 26.425,-22.424 35.5,-37.5 6.679,-18.434 9.013,-37.434 7,-57 -4.512,-13.199 -11.679,-24.699 -21.5,-34.5 -14,-10.333 -28,-20.667 -42,-31 -12.067,-9.06 -21.567,-20.227 -28.5,-33.5 -1.737,-4.161 -2.737,-8.495 -3,-13 -4.978,-22.691 0.022,-42.691 15,-60 6.864,-7.198 14.03,-14.032 21.5,-20.5 8.662,-5.606 17.996,-9.106 28,-10.5 z" id="path64"></path>
  </g>
  <rect style="clip-rule:evenodd;fill:#014473;fill-opacity:1;fill-rule:evenodd;image-rendering:optimizeQuality;shape-rendering:geometricPrecision;text-rendering:geometricPrecision" id="rect228" width="42.679012" height="344.59351" x="627.2215" y="317.04184"></rect>
  <path style="fill:#ffffff;fill-opacity:1" id="path232" sodipodi:type="arc" sodipodi:cx="500.09531" sodipodi:cy="468.08603" sodipodi:rx="65.006462" sodipodi:ry="84.370087" sodipodi:start="4.7430299" sodipodi:end="1.5643926" sodipodi:arc-type="slice" d="m 502.08685,383.75555 a 65.006462,84.370087 0 0 1 63.01015,85.3529 65.006462,84.370087 0 0 1 -64.58541,83.34594 l -0.41628,-84.36836 z"></path>
</svg></svg></g></svg>