<svg xmlns="http://www.w3.org/2000/svg" version="1.1" xmlns:xlink="http://www.w3.org/1999/xlink" xmlns:svgjs="http://svgjs.com/svgjs" width="512" height="512"><svg width="512" height="512" viewBox="0 0 512 512" version="1.1" id="SvgjsSvg1036" xml:space="preserve" xmlns:inkscape="http://www.inkscape.org/namespaces/inkscape" xmlns:sodipodi="http://sodipodi.sourceforge.net/DTD/sodipodi-0.dtd" xmlns="http://www.w3.org/2000/svg" xmlns:svg="http://www.w3.org/2000/svg"><sodipodi:namedview id="SvgjsSodipodi:namedview1035" pagecolor="#ffffff" bordercolor="#000000" borderopacity="0.25" inkscape:showpageshadow="2" inkscape:pageopacity="0.0" inkscape:pagecheckerboard="0" inkscape:deskcolor="#d1d1d1" inkscape:document-units="px" showguides="false"></sodipodi:namedview><defs id="SvgjsDefs1034"></defs><g inkscape:label="Livello 1" inkscape:groupmode="layer" id="SvgjsG1033"><rect style="fill:#006293;fill-opacity:1;stroke-width:2.29537" id="SvgjsRect1032" width="123.25986" height="52.053741" x="281.11996" y="33.689686" transform="matrix(0.89285643,0.45034141,-0.47750544,0.87862879,0,0)" inkscape:transform-center-x="68.516579" inkscape:transform-center-y="-36.921451"></rect><rect style="fill:#006293;fill-opacity:1;stroke-width:2.29702" id="SvgjsRect1031" width="123.18558" height="52.160194" x="212.24297" y="-158.95372" transform="matrix(-0.00364981,0.99999334,-0.99785942,-0.06539556,0,0)" inkscape:transform-center-x="-2.3945054" inkscape:transform-center-y="-77.681675"></rect><rect style="fill:#006293;fill-opacity:1;stroke-width:2.29537" id="SvgjsRect1030" width="123.25986" height="52.053741" x="284.00247" y="43.293427" transform="matrix(0.7524698,0.65862675,-0.68138848,0.73192195,0,0)" inkscape:transform-center-x="57.15469" inkscape:transform-center-y="-52.83044"></rect><rect style="fill:#006293;fill-opacity:1;stroke-width:2.58226" id="SvgjsRect1029" width="155.51019" height="52.216785" x="346.9549" y="-222.21175" transform="matrix(0.16877989,0.98565377,-0.98120922,0.19294681,0,0)" inkscape:transform-center-x="14.503595" inkscape:transform-center-y="-97.240203"></rect><rect style="fill:#006293;fill-opacity:1;stroke-width:2.29537" id="SvgjsRect1028" width="123.25986" height="52.053741" x="13.419971" y="-288.91287" transform="matrix(-0.48732588,0.87322018,-0.85786779,-0.51387046,0,0)" inkscape:transform-center-x="-39.757518" inkscape:transform-center-y="-66.910785"></rect><path style="fill:#006293;fill-opacity:1" id="SvgjsPath1027" sodipodi:type="arc" sodipodi:cx="260.90274" sodipodi:cy="183.87439" sodipodi:rx="154.56456" sodipodi:ry="128.84462" sodipodi:start="3.599478" sodipodi:end="5.5121103" sodipodi:arc-type="slice" d="M 122.25999,126.91833 A 154.56456,128.84462 0 0 1 236.79753,56.606304 154.56456,128.84462 0 0 1 371.75055,94.081724 L 260.90274,183.87439 Z"></path><path style="fill:#006293;fill-opacity:1" id="SvgjsPath1026" sodipodi:type="arc" sodipodi:cx="177.61913" sodipodi:cy="182.89458" sodipodi:rx="3.6742761" sodipodi:ry="14.207201" sodipodi:start="2.916899" sodipodi:end="0.14331088" sodipodi:arc-type="slice" d="m 174.03721,186.06005 a 3.6742761,14.207201 0 0 1 1.43025,-14.6818 3.6742761,14.207201 0 0 1 4.05409,-0.63822 3.6742761,14.207201 0 0 1 1.73418,14.18363 l -3.6366,-2.02908 z"></path><path style="fill:#006293;fill-opacity:1" id="SvgjsPath1025" sodipodi:type="arc" sodipodi:cx="251.34529" sodipodi:cy="236.80852" sodipodi:rx="168.77176" sodipodi:ry="169.99651" sodipodi:start="3.1215725" sodipodi:end="5.3678811" sodipodi:arc-type="arc" d="M 82.607353,240.21165 A 168.77176,169.99651 0 0 1 175.26286,85.065452 168.77176,169.99651 0 0 1 354.22002,102.04412" sodipodi:open="true"></path><rect style="fill:#006293;fill-opacity:1;stroke-width:1.00283" id="SvgjsRect1024" width="92.57177" height="81.017334" x="140.99835" y="171.6871" transform="matrix(0.98249299,0.18629957,-0.28936545,0.9572187,0,0)" inkscape:transform-center-x="6.5153595" inkscape:transform-center-y="-2.9394116"></rect><rect style="fill:#006293;fill-opacity:1" id="SvgjsRect1023" width="36.74276" height="45.561024" x="139.6516" y="173.58641"></rect><rect style="fill:#006293;fill-opacity:1" id="SvgjsRect1022" width="64.667259" height="86.712914" x="142.59102" y="261.76904"></rect><rect style="fill:#006293;fill-opacity:1" id="SvgjsRect1021" width="54.86919" height="75.935036" x="182.76311" y="295.57236"></rect><rect style="fill:#006293;fill-opacity:1" id="SvgjsRect1020" width="109.24847" height="91.122047" x="262.1275" y="95.201859"></rect><rect style="fill:#006293;fill-opacity:1" id="SvgjsRect1019" width="97.980698" height="73.975426" x="269.47604" y="145.17201"></rect><path style="fill:#006293;fill-opacity:1" id="SvgjsPath1018" sodipodi:type="arc" sodipodi:cx="299.76593" sodipodi:cy="252.74623" sodipodi:rx="210.90344" sodipodi:ry="230.25464" sodipodi:start="1.5338734" sodipodi:end="2.7421363" sodipodi:arc-type="arc" d="M 307.55133,482.84393 A 210.90344,230.25464 0 0 1 105.46638,342.2963" sodipodi:open="true"></path><rect style="fill:#006293;fill-opacity:1;stroke-width:1.03439" id="SvgjsRect1017" width="80.714478" height="91.551025" x="374.32529" y="118.01882" transform="matrix(0.76930833,0.63887768,-0.87072797,0.49176499,0,0)"></rect><rect style="fill:#006293;fill-opacity:1" id="SvgjsRect1016" width="64.779434" height="45.380245" x="165.7543" y="351.80991"></rect><rect style="fill:#006293;fill-opacity:1" id="SvgjsRect1015" width="45.380245" height="79.67524" x="206.45796" y="354.92761"></rect><rect style="fill:#006293;fill-opacity:1" id="SvgjsRect1014" width="21.131258" height="19.052774" x="232.78543" y="425.5961"></rect><rect style="fill:#006293;fill-opacity:1" id="SvgjsRect1013" width="45.380245" height="32.73613" x="168.006" y="382.12112"></rect><rect style="fill:#006293;fill-opacity:1;stroke-width:0.617309" id="SvgjsRect1012" width="12.887375" height="22.565813" x="-263.23706" y="378.08536" transform="matrix(-0.94421197,-0.32933837,0.14803516,0.9889821,0,0)" inkscape:transform-center-x="0.85219546" inkscape:transform-center-y="0.23260286"></rect><rect style="fill:#006293;fill-opacity:1;stroke-width:0.617309" id="SvgjsRect1011" width="12.887375" height="22.565813" x="-234.26909" y="380.62769" transform="matrix(-0.95967769,-0.28110269,0.19792547,0.98021707,0,0)" inkscape:transform-center-x="0.83932758" inkscape:transform-center-y="0.27546519"></rect><rect style="fill:#006293;fill-opacity:1" id="SvgjsRect1010" width="25.23003" height="30.496492" x="270.70081" y="444.99292"></rect><rect style="fill:#006293;fill-opacity:1;stroke-width:1.00113" id="SvgjsRect1009" width="32.216507" height="36.108582" x="349.64709" y="-133.53349" transform="matrix(0.82414031,0.56638569,-0.62045282,0.78424377,0,0)"></rect><rect style="fill:#006293;fill-opacity:1" id="SvgjsRect1008" width="45.726658" height="48.324764" x="374.14694" y="-46.963062" transform="rotate(22.952976)"></rect><rect style="fill:#006293;fill-opacity:1" id="SvgjsRect1007" width="45.726658" height="48.324764" x="373.78955" y="13.156713" transform="rotate(21.03707)"></rect><rect style="fill:#006293;fill-opacity:1" id="SvgjsRect1006" width="45.726658" height="48.324764" x="363.51892" y="96.008095" transform="rotate(11.370408)"></rect><rect style="fill:#006293;fill-opacity:1" id="SvgjsRect1005" width="45.726658" height="48.324764" x="362.50366" y="146.9507" transform="rotate(10.966754)"></rect><rect style="fill:#006293;fill-opacity:1;stroke-width:1.30825" id="SvgjsRect1004" width="29.527237" height="128.08479" x="608.51312" y="-279.7756" transform="matrix(0.51546825,0.85690868,-0.12430095,0.99224456,0,0)"></rect><rect style="fill:#006293;fill-opacity:1;stroke-width:1.62148" id="SvgjsRect1003" width="43.848747" height="132.49738" x="400.77377" y="-26.069407" transform="matrix(0.81672127,0.57703237,-0.28272946,0.95919969,0,0)"></rect><rect style="fill:#006293;fill-opacity:1;stroke-width:0.692088" id="SvgjsRect1002" width="8.8182735" height="67.851608" x="12.56075" y="446.38245" transform="rotate(-40.104354)"></rect><rect style="fill:#006293;fill-opacity:1" id="SvgjsRect1001" width="14.207201" height="22.780512" x="325.32501" y="341.62329"></rect><rect style="fill:#006293;fill-opacity:1;stroke-width:2.97134" id="SvgjsRect1000" width="63.70916" height="69.846184" x="506.42447" y="235.80132" transform="matrix(0.98620854,-0.16550743,-0.5850125,0.81102427,0,0)"></rect></g></svg><style>@media (prefers-color-scheme: light) { :root { filter: none; } }
@media (prefers-color-scheme: dark) { :root { filter: none; } }
</style></svg>